<!-- <svg xmlns="http://www.w3.org/2000/svg" fill="none" viewBox="0 0 36 36">
  <path fill="#000" d="M22.25 4h-8.5a1 1 0 0 0-.96.73l-5.54 19.4a.5.5 0 0 0 .62.62l5.05-1.44a2 2 0 0 0 1.38-1.4l3.22-11.66a.5.5 0 0 1 .96 0l3.22 11.67a2 2 0 0 0 1.38 1.39l5.05 1.44a.5.5 0 0 0 .62-.62l-5.54-19.4a1 1 0 0 0-.96-.73Z"/>
  <path fill="url(#gradient)" d="M18 28a7.63 7.63 0 0 1-5-2c-1.4 2.1-.35 4.35.6 5.55.14.17.41.07.47-.15.44-1.8 2.93-1.22 2.93.6 0 2.28.87 3.4 1.72 3.81.34.16.59-.2.49-.56-.31-1.05-.29-2.46 1.29-3.25 3-1.5 3.17-4.83 2.5-6-.67.67-2.6 2-5 2Z"/>
  <defs>
    <linearGradient id="gradient" x1="16" x2="16" y1="32" y2="24" gradientUnits="userSpaceOnUse">
      <stop stop-color="#000"/>
      <stop offset="1" stop-color="#000" stop-opacity="0"/>
    </linearGradient>
  </defs>
	<style>
    @media (prefers-color-scheme:dark){:root{filter:invert(100%)}}
  </style>
</svg> -->

    <svg id="Layer_1" xmlns="http://www.w3.org/2000/svg" viewBox="0 0 36 36">
      <style>
        .cls-1 {
          fill: #000;
        }

        @media (prefers-color-scheme:dark){:root{filter:invert(100%)}}
      </style>
      <path
        class="cls-1"
        d="M4.54 17.74c0 3.95 1.68 9.68 6.73 9.68S18 21.69 18 17.74c0-12.22-13.46-12.22-13.46 0Zm4.72 5.29c-2.41 0-4.36-2.13-4.36-4.92 0-6.85 8.72-6.85 8.72 0 0 2.79-1.95 4.92-4.36 4.92ZM18 17.74c0 3.95 1.68 9.68 6.73 9.68s6.73-5.73 6.73-9.68c0-12.22-13.46-12.22-13.46 0Zm4.72 5.29c-2.41 0-4.36-2.13-4.36-4.92 0-6.85 8.72-6.85 8.72 0 0 2.79-1.95 4.92-4.36 4.92Z"
      />
    </svg>